<svg xmlns="http://www.w3.org/2000/svg" xmlns:cc="http://web.resource.org/cc/" xmlns:svg="http://www.w3.org/2000/svg" xmlns:xlink="http://www.w3.org/1999/xlink" id="svg2160" width="250" height="300" version="1.0"><defs id="defs2162"><marker id="Arrow1Mend" orient="auto" refX="0" refY="0" style="overflow:visible"><path id="path3299" d="M 0,0 L 5,-5 L -12.5,0 L 5,5 L 0,0 z" transform="matrix(-0.4,0,0,-0.4,-4,0)" style="fill-rule:evenodd;stroke:#000;stroke-width:1pt;marker-start:none"/></marker><linearGradient id="linearGradient3224"><stop style="stop-color:#fff;stop-opacity:1" id="stop3226" offset="0"/><stop style="stop-color:#000;stop-opacity:0" id="stop3228" offset="1"/></linearGradient><linearGradient id="linearGradient3230" x1="199.308" x2="348.784" y1="341.003" y2="341.003" gradientUnits="userSpaceOnUse" xlink:href="#linearGradient3224"/><linearGradient id="linearGradient2357" x1="199.308" x2="348.784" y1="341.003" y2="341.003" gradientUnits="userSpaceOnUse" xlink:href="#linearGradient3224"/></defs><metadata id="metadata2165"/><g id="layer1"><rect style="fill:#fff;stroke:#000;stroke-width:1;stroke-miterlimit:4;stroke-dasharray:none;stroke-opacity:1" id="rect2196" width="139.072" height="279.072" x="110.464" y="10.464"/><flowRoot id="flowRoot3180" transform="translate(1.8535156,-54.849147)" xml:space="preserve"><flowRegion id="flowRegion3182"><rect id="rect3184" width="97.01" height="17.564" x="2.99" y="332.436"/></flowRegion><flowPara id="flowPara3186">Workspace base</flowPara></flowRoot><flowRoot id="flowRoot3188" transform="translate(1.8535156,-329.84915)" xml:space="preserve"><flowRegion id="flowRegion3190"><rect id="rect3192" width="97.01" height="17.564" x="2.99" y="332.436"/></flowRegion><flowPara id="flowPara3196">Workspace top</flowPara></flowRoot><path style="fill:none;fill-rule:evenodd;stroke:#000;stroke-width:1;stroke-linecap:butt;stroke-linejoin:miter;stroke-miterlimit:4;stroke-dasharray:1,1;stroke-dashoffset:0;stroke-opacity:1" id="path3243" d="M 109.94816,260.4823 C 249.5177,260.4823 249.5177,260.4823 249.5177,260.4823"/><path style="fill:none;fill-rule:evenodd;stroke:#000;stroke-width:1;stroke-linecap:butt;stroke-linejoin:miter;marker-start:none;stroke-miterlimit:4;stroke-dasharray:1,1;stroke-dashoffset:0;stroke-opacity:1" id="path3245" d="M 110.5,74.5 C 249.57284,74.5 249.57284,74.5 249.57284,74.5"/><path style="fill:none;fill-rule:evenodd;stroke:#000;stroke-width:1;stroke-linecap:butt;stroke-linejoin:miter;stroke-miterlimit:4;stroke-dasharray:1,1;stroke-dashoffset:0;stroke-opacity:1" id="path3247" d="M 110.5,149.5 C 249.57284,149.5 249.57284,149.5 249.57284,149.5"/><flowRoot id="flowRoot3249" transform="translate(125.4043,-62.808117)" xml:space="preserve"><flowRegion id="flowRegion3251"><rect id="rect3253" width="107.01" height="12.564" x="2.99" y="332.436"/></flowRegion><flowPara id="flowPara3255">Thread Structure</flowPara></flowRoot><flowRoot id="flowRoot3257" transform="translate(133.58398,-197.80812)" xml:space="preserve"><flowRegion id="flowRegion3259"><rect id="rect3261" width="102.01" height="17.564" x="2.99" y="332.436"/></flowRegion><flowPara id="flowPara3263">intctx Structure</flowPara></flowRoot><flowRoot id="flowRoot3265" transform="translate(137.71094,-292.80812)" xml:space="preserve"><flowRegion id="flowRegion3267"><rect id="rect3269" width="97.01" height="17.564" x="2.99" y="332.436"/></flowRegion><flowPara id="flowPara3273">Thread Stack</flowPara></flowRoot><flowRoot id="flowRoot3277" transform="translate(1.2089844,-187.09523)" xml:space="preserve"><flowRegion id="flowRegion3279"><rect id="rect3281" width="97.01" height="17.564" x="2.99" y="332.436"/></flowRegion><flowPara id="flowPara3283">Stack Pointer</flowPara></flowRoot><path style="fill:none;fill-rule:evenodd;stroke:#000;stroke-width:.6978516px;stroke-linecap:butt;stroke-linejoin:miter;marker-end:url(#Arrow1Mend);stroke-opacity:1" id="path3487" d="M 100.34893,288.42983 C 109.31485,288.42983 109.31485,288.42983 109.31485,288.42983"/><path style="fill:none;fill-rule:evenodd;stroke:#000;stroke-width:.6978516px;stroke-linecap:butt;stroke-linejoin:miter;marker-end:url(#Arrow1Mend);stroke-opacity:1" id="path3489" d="M 100.34893,148.42983 C 109.31485,148.42983 109.31485,148.42983 109.31485,148.42983"/><path style="fill:none;fill-rule:evenodd;stroke:#000;stroke-width:.6978516px;stroke-linecap:butt;stroke-linejoin:miter;marker-end:url(#Arrow1Mend);stroke-opacity:1" id="path3491" d="M 100.16177,11.570166 C 109.12769,11.570166 109.12769,11.570166 109.12769,11.570166"/><path style="fill:none;fill-rule:evenodd;stroke:#000;stroke-width:1;stroke-linecap:butt;stroke-linejoin:miter;stroke-miterlimit:4;stroke-dasharray:1,1;stroke-dashoffset:0;stroke-opacity:1" id="path2206" d="M 109.93046,230.5 C 249.5,230.5 249.5,230.5 249.5,230.5"/><flowRoot id="flowRoot2208" transform="translate(112.03516,-92.095227)" xml:space="preserve"><flowRegion id="flowRegion2210"><rect id="rect2212" width="132.01" height="17.564" x="2.99" y="332.436"/></flowRegion><flowPara id="flowPara2214">Thread Local Storage</flowPara></flowRoot><path style="fill:none;fill-rule:evenodd;stroke:#000;stroke-width:.6978516px;stroke-linecap:butt;stroke-linejoin:miter;marker-end:url(#Arrow1Mend);stroke-opacity:1" id="path2216" d="M 100.16177,261.57017 C 109.12769,261.57017 109.12769,261.57017 109.12769,261.57017"/><flowRoot id="flowRoot2218" transform="translate(1.359375,-83.728054)" xml:space="preserve"><flowRegion id="flowRegion2220"><rect id="rect2222" width="117.01" height="17.564" x="2.99" y="332.436"/></flowRegion><flowPara id="flowPara2224">chThdLS()</flowPara></flowRoot><flowRoot id="flowRoot2209" transform="translate(2.3710937,-107.80812)" xml:space="preserve"><flowRegion id="flowRegion2211"><rect id="rect2213" width="97.01" height="17.564" x="2.99" y="332.436"/></flowRegion><flowPara id="flowPara2215">Stack Limit</flowPara></flowRoot><path style="fill:none;fill-rule:evenodd;stroke:#000;stroke-width:.6978516px;stroke-linecap:butt;stroke-linejoin:miter;marker-end:url(#Arrow1Mend);stroke-opacity:1" id="path2217" d="M 100.16177,231.57017 C 109.12769,231.57017 109.12769,231.57017 109.12769,231.57017"/><path style="fill:none;fill-rule:evenodd;stroke:#000;stroke-width:1;stroke-linecap:butt;stroke-linejoin:miter;stroke-miterlimit:4;stroke-dasharray:1,1;stroke-dashoffset:0;stroke-opacity:1" id="path2221" d="M 110.42716,125.5 C 249.5,125.5 249.5,125.5 249.5,125.5"/><path style="fill:none;fill-rule:evenodd;stroke:#000;stroke-width:1;stroke-linecap:butt;stroke-linejoin:miter;stroke-miterlimit:4;stroke-dasharray:1,1;stroke-dashoffset:0;stroke-opacity:1" id="path2223" d="M 110.42716,100.5 C 249.5,100.5 249.5,100.5 249.5,100.5"/><flowRoot id="flowRoot2225" transform="translate(130.04492,-248.01905)" xml:space="preserve"><flowRegion id="flowRegion2227"><rect id="rect2229" width="102.01" height="17.564" x="2.99" y="332.436"/></flowRegion><flowPara id="flowPara2231">extctx Structure</flowPara></flowRoot><flowRoot id="flowRoot2235" transform="translate(110.82227,-224.75538)" xml:space="preserve"><flowRegion id="flowRegion2237"><rect id="rect2239" width="137.01" height="17.564" x="2.99" y="332.436"/></flowRegion><flowPara id="flowPara2241">INT_REQUIRED_STACK</flowPara></flowRoot></g></svg>